<?xml version="1.0" encoding="UTF-8"?>
<!DOCTYPE svg PUBLIC "-//W3C//DTD SVG 1.1//EN" "http://www.w3.org/Graphics/SVG/1.1/DTD/svg11.dtd">
<!-- Creator: CorelDRAW X5 -->
<svg xmlns="http://www.w3.org/2000/svg" xml:space="preserve" width="2048px" height="2048px" style="shape-rendering:geometricPrecision; text-rendering:geometricPrecision; image-rendering:optimizeQuality; fill-rule:evenodd; clip-rule:evenodd"
viewBox="0 0 2048 2048"
 xmlns:xlink="http://www.w3.org/1999/xlink">
 <defs>
  <style type="text/css">
   <![CDATA[
    .fil1 {fill:none}
    .fil0 {fill:#212121;fill-rule:nonzero}
   ]]>
  </style>
 </defs>
 <g id="Layer_x0020_1">
  <metadata id="CorelCorpID_0Corel-Layer"/>
  <path class="fil0" d="M883 634c3,-3 6,-6 9,-9 35,-32 84,-49 132,-49 48,0 97,16 132,49 4,3 7,6 9,9l166 157 218 -74c19,-6 38,-3 55,6 15,9 28,24 35,43l0 0c6,19 6,39 -1,56 -7,18 -21,32 -40,38l0 0 -265 90c-2,1 -5,2 -7,3 -3,1 -5,2 -8,2 -3,1 -6,1 -9,1 -3,0 -7,0 -10,0l-1 0c-10,0 -20,-3 -29,-8 -9,-5 -17,-11 -23,-19l-37 -40 0 809c0,41 -20,68 -45,81 -10,5 -21,7 -32,7 -11,0 -22,-2 -32,-7 -26,-12 -45,-39 -45,-81 0,0 0,-1 0,-1l-16 -416c-5,-3 -10,-5 -14,-5 -4,0 -9,2 -15,5l-16 417 0 0c0,41 -20,68 -45,81 -10,5 -21,7 -32,7 -11,0 -22,-2 -32,-7 -26,-12 -45,-39 -45,-81l0 -811c-31,32 -67,67 -89,69l0 0c-3,0 -6,0 -10,0 -3,0 -6,-1 -9,-1l0 0c-3,-1 -6,-1 -8,-2 -2,-1 -4,-2 -7,-3l-265 -89 0 0c-19,-6 -32,-20 -40,-38 -7,-16 -8,-35 -2,-54 0,-1 1,-2 1,-3 7,-18 19,-33 34,-42 16,-10 36,-13 55,-6l218 73 167 -157zm41 27c-2,2 -4,4 -6,6 -1,1 -1,2 -2,2l-177 167 0 0c-6,6 -15,8 -24,5l-232 -78c-5,-2 -10,-1 -15,2 -6,4 -11,10 -14,18l0 0c-3,8 -2,16 0,22 2,5 6,9 10,11l0 0 266 89 0 0c1,0 1,1 2,1 1,0 2,1 3,1 1,0 2,1 3,1l0 0c0,0 1,0 1,0 1,0 2,0 2,0 1,0 2,0 3,0l0 0c0,0 1,0 1,0 6,0 44,-40 72,-70 10,-11 19,-20 26,-27 4,-5 11,-8 18,-8 13,0 24,11 24,24l0 870c0,20 8,33 18,38 4,2 8,3 12,3 4,0 8,-1 12,-3 10,-5 18,-17 18,-38l0 0c0,0 0,-1 0,-1l16 -430 0 0c0,-7 3,-13 9,-18 18,-14 35,-21 53,-21 18,0 35,7 53,21l0 0c5,4 9,11 9,18l16 428c0,1 0,2 0,3 0,20 8,33 18,38 4,2 8,3 12,3 4,0 8,-1 12,-3 10,-5 18,-17 18,-38l0 -870 0 0c0,-6 3,-13 8,-18 10,-9 25,-8 34,1l79 85c1,1 2,2 3,4 2,2 4,4 6,5 3,1 6,2 9,2 1,0 1,0 2,0 1,0 2,0 3,0 1,0 1,0 2,0 1,0 1,0 2,0 1,0 2,-1 3,-1 1,0 2,-1 3,-1l0 0c1,0 1,-1 2,-1l264 -89c1,0 2,-1 2,-1 4,-2 8,-6 10,-10 3,-6 3,-14 0,-22l0 0c-3,-8 -8,-14 -14,-18 -5,-3 -10,-4 -15,-2l-232 78 0 0c-8,3 -17,1 -24,-5l-177 -167c-1,-1 -1,-1 -2,-2 -3,-3 -5,-5 -7,-7 -26,-24 -63,-36 -100,-36 -37,0 -73,12 -100,36z"/>
  <path class="fil0" d="M1024 261c39,0 75,16 101,42 26,26 42,61 42,101 0,39 -16,75 -42,101 -26,26 -61,42 -101,42 -39,0 -75,-16 -101,-42 -26,-26 -42,-61 -42,-101 0,-39 16,-75 42,-101 26,-26 61,-42 101,-42zm67 76c-17,-17 -41,-28 -67,-28 -26,0 -50,11 -67,28 -17,17 -28,41 -28,67 0,26 11,50 28,67 17,17 41,28 67,28 26,0 50,-11 67,-28 17,-17 28,-41 28,-67 0,-26 -11,-50 -28,-67z"/>
  <path class="fil0" d="M462 1282l-175 0c4,42 23,80 51,108 32,32 76,52 124,52 49,0 93,-20 124,-52 28,-28 47,-66 51,-108l-175 0zm-192 -32l192 0 192 0c9,0 16,7 16,16 0,57 -23,109 -61,147 -38,38 -90,61 -147,61 -57,0 -109,-23 -147,-61 -38,-38 -61,-90 -61,-147 0,-9 7,-16 16,-16z"/>
  <path class="fil0" d="M289 1267c-4,8 -13,12 -21,8 -8,-4 -12,-13 -8,-21l188 -411c4,-8 13,-12 21,-8 8,4 12,13 8,21l-188 411z"/>
  <path class="fil0" d="M664 1254c4,8 0,17 -8,21 -8,4 -17,0 -21,-8l-188 -411c-4,-8 0,-17 8,-21 8,-4 17,0 21,8l188 411z"/>
  <path class="fil0" d="M1586 1282l-175 0c4,42 23,80 51,108 32,32 76,52 124,52 49,0 93,-20 124,-52 28,-28 47,-66 51,-108l-175 0zm-192 -32l192 0 192 0c9,0 16,7 16,16 0,57 -23,109 -61,147 -38,38 -90,61 -147,61 -57,0 -109,-23 -147,-61 -38,-38 -61,-90 -61,-147 0,-9 7,-16 16,-16z"/>
  <path class="fil0" d="M1413 1267c-4,8 -13,12 -21,8 -8,-4 -12,-13 -8,-21l188 -411c4,-8 13,-12 21,-8 8,4 12,13 8,21l-188 411z"/>
  <path class="fil0" d="M1788 1254c4,8 0,17 -8,21 -8,4 -17,0 -21,-8l-188 -411c-4,-8 0,-17 8,-21 8,-4 17,0 21,8l188 411z"/>
 </g>
 <rect class="fil1" width="2048" height="2048"/>
</svg>
